<svg xmlns="http://www.w3.org/2000/svg" xmlns:xlink="http://www.w3.org/1999/xlink" width="1238" zoomAndPan="magnify" viewBox="0 0 928.5 257.250001" height="343" preserveAspectRatio="xMidYMid meet" version="1.0"><defs><g/><clipPath id="0b2b08b112"><path d="M 567.585938 87 L 671.589844 87 L 671.589844 187.925781 L 567.585938 187.925781 Z M 567.585938 87 " clip-rule="nonzero"/></clipPath><clipPath id="3bab6ca7d6"><path d="M 616 63.722656 L 634 63.722656 L 634 98 L 616 98 Z M 616 63.722656 " clip-rule="nonzero"/></clipPath><clipPath id="4e48b38939"><path d="M 623 73 L 671.589844 73 L 671.589844 92 L 623 92 Z M 623 73 " clip-rule="nonzero"/></clipPath><clipPath id="a88a52d721"><path d="M 310 83 L 390 83 L 390 256.503906 L 310 256.503906 Z M 310 83 " clip-rule="nonzero"/></clipPath><clipPath id="093cd76cc2"><path d="M 435.605469 175.265625 L 318.234375 256.796875 L 245.238281 151.714844 L 362.609375 70.183594 Z M 435.605469 175.265625 " clip-rule="nonzero"/></clipPath><clipPath id="1260e880ab"><path d="M 435.605469 175.265625 L 318.234375 256.796875 L 245.238281 151.714844 L 362.609375 70.183594 Z M 435.605469 175.265625 " clip-rule="nonzero"/></clipPath></defs><g clip-path="url(#0b2b08b112)"><path fill="#dd2e44" d="M 630.644531 89.269531 C 629.613281 89.925781 627.175781 90.671875 623.335938 91.230469 C 606.28125 92.535156 614.527344 86.402344 595.226562 88.058594 C 568.054688 90.390625 566.648438 113.050781 568.054688 125.917969 C 571.429688 165.359375 590.355469 185.855469 600.472656 187.648438 C 613.589844 188.484375 611.46875 184.105469 619.960938 184.289062 C 628.488281 184.476562 624.179688 188.207031 638.980469 187.648438 C 642.261719 187.648438 665.496094 177.296875 671.121094 128.996094 C 668.121094 130.488281 665.03125 131.886719 659.6875 127.78125 C 653.878906 128.25 649.757812 126.664062 648.539062 119.761719 C 643.761719 113.050781 644.042969 109.132812 647.320312 104.75 C 646.382812 102.046875 647.882812 97.664062 652.566406 96.917969 C 653.285156 95.425781 655.472656 92.90625 658.191406 92.253906 C 657.253906 91.601562 657.253906 91.507812 653.878906 90.015625 C 649.320312 87.871094 640.480469 86.753906 630.644531 89.269531 Z M 630.644531 89.269531 " fill-opacity="1" fill-rule="nonzero"/></g><g clip-path="url(#3bab6ca7d6)"><path fill="#662113" d="M 629.519531 64 C 627.738281 64 616.121094 73.980469 616.589844 95.332031 C 617.527344 99.34375 623.054688 98.222656 623.242188 95.332031 C 622.679688 79.480469 632.703125 69.597656 633.546875 68.289062 C 634.015625 67.078125 633.265625 63.253906 629.519531 64 Z M 629.519531 64 " fill-opacity="1" fill-rule="nonzero"/></g><g clip-path="url(#4e48b38939)"><path fill="#00bf63" d="M 671.445312 80.917969 C 669.425781 78.820312 648.503906 63.191406 623.992188 86.847656 L 623.804688 87.78125 C 635.972656 89.828125 650.484375 97.09375 671.445312 80.917969 Z M 671.445312 80.917969 " fill-opacity="1" fill-rule="nonzero"/></g><g fill="#ffffff" fill-opacity="1"><g transform="translate(3.30727, 186.282275)"><g><path d="M 83.691406 -19.160156 L 73.6875 -24.9375 C 72.5625 -25.503906 71.574219 -25.359375 70.871094 -24.515625 C 69.179688 -22.542969 67.488281 -21.132812 65.65625 -20.007812 C 63.824219 -18.878906 61.996094 -17.894531 60.304688 -17.332031 C 58.472656 -16.765625 56.78125 -16.34375 55.089844 -16.203125 C 53.398438 -15.921875 51.992188 -15.921875 50.863281 -15.921875 C 48.609375 -15.921875 45.933594 -16.203125 42.832031 -16.90625 C 39.734375 -17.613281 36.632812 -19.160156 33.675781 -21.699219 C 30.714844 -24.09375 28.179688 -27.617188 26.066406 -32.40625 C 23.953125 -37.054688 22.964844 -43.394531 22.964844 -51.566406 C 22.964844 -59.597656 23.953125 -65.9375 26.066406 -70.730469 C 28.179688 -75.519531 30.714844 -79.042969 33.675781 -81.578125 C 36.632812 -83.972656 39.734375 -85.523438 42.832031 -86.226562 C 45.933594 -86.933594 48.609375 -87.355469 50.863281 -87.355469 C 51.992188 -87.355469 53.398438 -87.214844 55.089844 -87.074219 C 56.78125 -86.792969 58.472656 -86.371094 60.304688 -85.804688 C 61.996094 -85.242188 63.824219 -84.398438 65.65625 -83.269531 C 67.488281 -82.140625 69.179688 -80.59375 70.871094 -78.761719 C 71.574219 -77.914062 72.5625 -77.632812 73.6875 -78.199219 L 83.691406 -84.113281 C 84.257812 -84.398438 84.539062 -84.820312 84.679688 -85.523438 C 84.820312 -86.085938 84.679688 -86.652344 84.398438 -87.214844 C 80.453125 -92.570312 75.519531 -96.515625 69.882812 -99.191406 C 64.25 -101.867188 57.910156 -103.277344 50.863281 -103.277344 C 43.820312 -103.277344 37.335938 -101.867188 31.703125 -99.191406 C 26.066406 -96.515625 21.273438 -92.570312 17.332031 -87.214844 C 13.949219 -82.707031 11.273438 -77.351562 9.582031 -71.433594 C 7.890625 -65.375 7.042969 -58.753906 7.042969 -51.566406 C 7.042969 -37.054688 10.425781 -25.21875 17.332031 -15.921875 C 25.359375 -5.214844 36.492188 0 50.863281 0 C 57.910156 0 64.25 -1.269531 69.882812 -3.945312 C 75.519531 -6.621094 80.453125 -10.566406 84.398438 -15.921875 L 84.398438 -16.0625 C 84.679688 -16.484375 84.820312 -17.046875 84.679688 -17.753906 C 84.539062 -18.316406 84.257812 -18.878906 83.691406 -19.160156 Z M 83.691406 -19.160156 "/></g></g></g><g fill="#ffffff" fill-opacity="1"><g transform="translate(95.16473, 186.282275)"><g><path d="M 51.144531 -99.191406 L 51.144531 -63.683594 C 51.144531 -62.558594 50.722656 -61.570312 49.878906 -60.726562 C 49.03125 -59.882812 48.1875 -59.597656 47.058594 -59.597656 L 27.050781 -59.597656 C 25.925781 -59.597656 24.9375 -59.882812 24.09375 -60.726562 C 23.246094 -61.570312 22.964844 -62.558594 22.964844 -63.683594 L 22.964844 -99.191406 C 22.964844 -100.316406 22.542969 -101.164062 21.699219 -102.007812 C 20.851562 -102.855469 20.007812 -103.277344 18.878906 -103.277344 L 11.128906 -103.277344 C 10.003906 -103.277344 9.015625 -102.855469 8.171875 -102.007812 C 7.328125 -101.164062 7.042969 -100.316406 7.042969 -99.191406 L 7.042969 -4.085938 C 7.042969 -2.957031 7.328125 -1.972656 8.171875 -1.128906 C 9.015625 -0.28125 10.003906 0 11.128906 0 L 18.878906 0 C 20.007812 0 20.851562 -0.28125 21.699219 -1.128906 C 22.542969 -1.972656 22.964844 -2.957031 22.964844 -4.085938 L 22.964844 -39.59375 C 22.964844 -40.71875 23.246094 -41.5625 24.09375 -42.410156 C 24.9375 -43.253906 25.925781 -43.679688 27.050781 -43.679688 L 47.058594 -43.679688 C 48.1875 -43.679688 49.03125 -43.253906 49.878906 -42.410156 C 50.722656 -41.5625 51.144531 -40.71875 51.144531 -39.59375 L 51.144531 -4.085938 C 51.144531 -2.957031 51.425781 -1.972656 52.273438 -1.128906 C 53.117188 -0.28125 54.105469 0 55.371094 0 L 62.980469 0 C 64.109375 0 64.953125 -0.28125 65.796875 -1.128906 C 66.644531 -1.972656 67.066406 -2.957031 67.066406 -4.085938 L 67.066406 -99.191406 C 67.066406 -100.316406 66.644531 -101.164062 65.796875 -102.007812 C 64.953125 -102.855469 64.109375 -103.277344 62.980469 -103.277344 L 55.371094 -103.277344 C 54.105469 -103.277344 53.117188 -102.855469 52.273438 -102.007812 C 51.425781 -101.164062 51.144531 -100.316406 51.144531 -99.191406 Z M 51.144531 -99.191406 "/></g></g></g><g fill="#ffffff" fill-opacity="1"><g transform="translate(169.270583, 186.282275)"><g><path d="M 57.765625 -91.441406 L 57.765625 -99.191406 C 57.765625 -100.316406 57.34375 -101.164062 56.5 -102.007812 C 55.652344 -102.855469 54.808594 -103.277344 53.679688 -103.277344 L 11.128906 -103.277344 C 10.003906 -103.277344 9.015625 -102.855469 8.171875 -102.007812 C 7.328125 -101.164062 7.042969 -100.316406 7.042969 -99.191406 L 7.042969 -4.085938 C 7.042969 -2.957031 7.328125 -1.972656 8.171875 -1.128906 C 9.015625 -0.28125 10.003906 0 11.128906 0 L 53.679688 0 C 54.808594 0 55.652344 -0.28125 56.5 -1.128906 C 57.34375 -1.972656 57.765625 -2.957031 57.765625 -4.085938 L 57.765625 -11.835938 C 57.765625 -12.960938 57.34375 -13.808594 56.5 -14.652344 C 55.652344 -15.5 54.808594 -15.921875 53.679688 -15.921875 L 27.050781 -15.921875 C 25.925781 -15.921875 24.9375 -16.203125 24.09375 -17.046875 C 23.246094 -17.894531 22.964844 -18.878906 22.964844 -20.007812 L 22.964844 -50.722656 C 22.964844 -51.851562 23.246094 -52.695312 24.09375 -53.539062 C 24.9375 -54.386719 25.925781 -54.808594 27.050781 -54.808594 L 44.664062 -54.808594 C 45.792969 -54.808594 46.777344 -55.230469 47.621094 -56.078125 C 48.46875 -56.921875 48.890625 -57.910156 48.890625 -59.035156 L 48.890625 -66.644531 C 48.890625 -67.769531 48.46875 -68.617188 47.621094 -69.460938 C 46.777344 -70.308594 45.792969 -70.730469 44.664062 -70.730469 L 27.050781 -70.730469 C 25.925781 -70.730469 24.9375 -71.011719 24.09375 -71.855469 C 23.246094 -72.703125 22.964844 -73.6875 22.964844 -74.816406 L 22.964844 -83.269531 C 22.964844 -84.398438 23.246094 -85.242188 24.09375 -86.085938 C 24.9375 -86.933594 25.925781 -87.355469 27.050781 -87.355469 L 53.679688 -87.355469 C 54.808594 -87.355469 55.652344 -87.636719 56.5 -88.484375 C 57.34375 -89.328125 57.765625 -90.316406 57.765625 -91.441406 Z M 57.765625 -91.441406 "/></g></g></g><g fill="#ffffff" fill-opacity="1"><g transform="translate(234.077994, 186.282275)"><g><path d="M 64.390625 0 L 72.421875 0 C 73.6875 0 74.816406 -0.421875 75.660156 -1.550781 C 76.507812 -2.675781 76.648438 -3.804688 76.367188 -5.214844 C 75.660156 -7.609375 75.097656 -9.441406 74.816406 -10.847656 C 74.535156 -12.117188 74.253906 -13.246094 73.96875 -14.371094 C 73.6875 -15.359375 73.265625 -16.484375 72.984375 -17.613281 C 72.703125 -18.738281 72.140625 -20.429688 71.574219 -22.683594 C 71.011719 -24.9375 70.167969 -27.898438 69.179688 -31.5625 C 68.195312 -35.222656 66.925781 -40.015625 65.375 -46.074219 C 63.683594 -51.992188 61.710938 -59.457031 59.316406 -68.335938 C 56.921875 -77.070312 54.105469 -87.777344 50.863281 -100.175781 C 50.582031 -101.023438 50.160156 -101.867188 49.453125 -102.429688 C 48.609375 -102.996094 47.765625 -103.277344 46.917969 -103.277344 L 36.773438 -103.277344 C 35.789062 -103.277344 34.941406 -102.996094 34.238281 -102.429688 C 33.390625 -101.867188 32.96875 -101.023438 32.828125 -100.175781 C 31.984375 -97.5 30.996094 -93.835938 29.730469 -89.046875 C 28.460938 -84.257812 27.050781 -79.042969 25.503906 -73.125 C 23.953125 -67.207031 22.261719 -61.007812 20.570312 -54.527344 C 18.878906 -48.046875 17.1875 -41.707031 15.5 -35.503906 C 13.808594 -29.304688 12.257812 -23.671875 10.847656 -18.316406 C 9.441406 -12.960938 8.171875 -8.59375 7.328125 -5.214844 C 6.902344 -3.804688 7.1875 -2.675781 8.03125 -1.550781 C 8.875 -0.421875 9.863281 0 11.273438 0 L 19.304688 0 C 21.273438 0 22.542969 -0.984375 23.246094 -3.101562 C 23.671875 -4.507812 24.09375 -6.339844 24.65625 -8.453125 C 25.21875 -10.425781 25.785156 -12.820312 26.488281 -15.359375 C 27.050781 -17.332031 28.460938 -18.457031 30.574219 -18.457031 L 53.117188 -18.457031 C 55.089844 -18.457031 56.5 -17.332031 57.203125 -15.359375 C 58.050781 -11.976562 58.613281 -9.441406 59.175781 -7.46875 C 59.738281 -5.496094 60.164062 -4.085938 60.445312 -3.101562 C 61.007812 -0.984375 62.417969 0 64.390625 0 Z M 32.96875 -39.59375 C 33.816406 -42.550781 34.519531 -45.507812 35.363281 -48.609375 C 36.210938 -51.566406 37.054688 -54.527344 37.902344 -57.625 C 38.183594 -58.613281 38.605469 -59.316406 39.449219 -59.882812 C 40.15625 -60.445312 41 -60.726562 41.847656 -60.726562 C 42.691406 -60.726562 43.394531 -60.445312 44.242188 -59.882812 C 44.945312 -59.316406 45.507812 -58.613281 45.792969 -57.625 C 46.636719 -54.246094 47.480469 -51.003906 48.328125 -48.046875 C 49.171875 -44.945312 49.878906 -42.128906 50.722656 -39.59375 C 51.003906 -38.183594 50.863281 -37.054688 50.019531 -35.929688 C 49.171875 -34.800781 48.046875 -34.378906 46.777344 -34.378906 L 36.914062 -34.378906 C 35.503906 -34.378906 34.519531 -34.800781 33.675781 -35.929688 C 32.828125 -37.054688 32.546875 -38.183594 32.96875 -39.59375 Z M 32.96875 -39.59375 "/></g></g></g><g clip-path="url(#a88a52d721)"><g clip-path="url(#093cd76cc2)"><g clip-path="url(#1260e880ab)"><path fill="#626262" d="M 318.230469 256.796875 C 324.398438 252.511719 327.671875 247 329.183594 242.644531 C 329.941406 240.46875 330.292969 238.566406 330.460938 237.144531 C 330.546875 236.433594 330.585938 235.839844 330.601562 235.390625 C 330.609375 235.164062 330.605469 234.976562 330.605469 234.828125 C 330.605469 234.757812 330.609375 234.683594 330.609375 234.640625 L 333.464844 147.410156 C 339.527344 150.632812 346.8125 152.414062 354.753906 152.347656 C 363.640625 152.273438 371.789062 149.996094 378.179688 145.878906 C 384.574219 141.765625 389.582031 135.234375 389.554688 127.347656 C 389.550781 126.136719 389.402344 124.980469 389.175781 123.839844 C 389.117188 112.941406 386.140625 104.058594 381.539062 97.433594 C 374.816406 87.753906 364.757812 83.242188 355.785156 83.109375 C 348.734375 83.003906 341.792969 84.730469 335.46875 89.039062 C 326.988281 94.816406 320.453125 105.691406 320.078125 124.761719 C 320.078125 124.777344 320.070312 124.789062 320.070312 124.800781 C 319.898438 125.824219 319.785156 126.867188 319.789062 127.941406 C 319.789062 128.078125 319.808594 128.207031 319.8125 128.34375 L 316.347656 234.558594 L 329.332031 230.675781 C 329.332031 230.675781 316.339844 234.925781 316.339844 234.917969 C 316.339844 234.925781 316.34375 234.933594 316.339844 234.96875 C 316.335938 235.0625 316.328125 235.257812 316.296875 235.539062 C 316.230469 236.105469 316.0625 236.996094 315.699219 238.03125 C 314.980469 240.105469 313.605469 242.699219 310.121094 245.121094 Z M 370.492188 133.929688 C 366.863281 136.265625 361.144531 138.0625 354.707031 138.117188 C 348.269531 138.171875 342.535156 136.484375 338.890625 134.210938 C 335.25 131.9375 334.054688 129.648438 334.046875 127.820312 C 334.039062 125.996094 335.222656 123.691406 338.851562 121.355469 C 342.480469 119.023438 348.199219 117.226562 354.636719 117.171875 C 361.074219 117.117188 366.796875 118.8125 370.4375 121.085938 C 374.082031 123.359375 375.289062 125.636719 375.296875 127.464844 C 375.300781 129.292969 374.117188 131.59375 370.492188 133.929688 Z M 370.492188 133.929688 " fill-opacity="1" fill-rule="nonzero"/></g></g></g><g fill="#ffffff" fill-opacity="1"><g transform="translate(393.036434, 186.133551)"><g><path d="M 83.691406 -19.160156 L 73.6875 -24.9375 C 72.5625 -25.503906 71.574219 -25.359375 70.871094 -24.515625 C 69.179688 -22.542969 67.488281 -21.132812 65.65625 -20.007812 C 63.824219 -18.878906 61.996094 -17.894531 60.304688 -17.332031 C 58.472656 -16.765625 56.78125 -16.34375 55.089844 -16.203125 C 53.398438 -15.921875 51.992188 -15.921875 50.863281 -15.921875 C 48.609375 -15.921875 45.933594 -16.203125 42.832031 -16.90625 C 39.734375 -17.613281 36.632812 -19.160156 33.675781 -21.699219 C 30.714844 -24.09375 28.179688 -27.617188 26.066406 -32.40625 C 23.953125 -37.054688 22.964844 -43.394531 22.964844 -51.566406 C 22.964844 -59.597656 23.953125 -65.9375 26.066406 -70.730469 C 28.179688 -75.519531 30.714844 -79.042969 33.675781 -81.578125 C 36.632812 -83.972656 39.734375 -85.523438 42.832031 -86.226562 C 45.933594 -86.933594 48.609375 -87.355469 50.863281 -87.355469 C 51.992188 -87.355469 53.398438 -87.214844 55.089844 -87.074219 C 56.78125 -86.792969 58.472656 -86.371094 60.304688 -85.804688 C 61.996094 -85.242188 63.824219 -84.398438 65.65625 -83.269531 C 67.488281 -82.140625 69.179688 -80.59375 70.871094 -78.761719 C 71.574219 -77.914062 72.5625 -77.632812 73.6875 -78.199219 L 83.691406 -84.113281 C 84.257812 -84.398438 84.539062 -84.820312 84.679688 -85.523438 C 84.820312 -86.085938 84.679688 -86.652344 84.398438 -87.214844 C 80.453125 -92.570312 75.519531 -96.515625 69.882812 -99.191406 C 64.25 -101.867188 57.910156 -103.277344 50.863281 -103.277344 C 43.820312 -103.277344 37.335938 -101.867188 31.703125 -99.191406 C 26.066406 -96.515625 21.273438 -92.570312 17.332031 -87.214844 C 13.949219 -82.707031 11.273438 -77.351562 9.582031 -71.433594 C 7.890625 -65.375 7.042969 -58.753906 7.042969 -51.566406 C 7.042969 -37.054688 10.425781 -25.21875 17.332031 -15.921875 C 25.359375 -5.214844 36.492188 0 50.863281 0 C 57.910156 0 64.25 -1.269531 69.882812 -3.945312 C 75.519531 -6.621094 80.453125 -10.566406 84.398438 -15.921875 L 84.398438 -16.0625 C 84.679688 -16.484375 84.820312 -17.046875 84.679688 -17.753906 C 84.539062 -18.316406 84.257812 -18.878906 83.691406 -19.160156 Z M 83.691406 -19.160156 "/></g></g></g><g fill="#ffffff" fill-opacity="1"><g transform="translate(484.893895, 186.133551)"><g><path d="M 51.144531 -99.191406 L 51.144531 -63.683594 C 51.144531 -62.558594 50.722656 -61.570312 49.878906 -60.726562 C 49.03125 -59.882812 48.1875 -59.597656 47.058594 -59.597656 L 27.050781 -59.597656 C 25.925781 -59.597656 24.9375 -59.882812 24.09375 -60.726562 C 23.246094 -61.570312 22.964844 -62.558594 22.964844 -63.683594 L 22.964844 -99.191406 C 22.964844 -100.316406 22.542969 -101.164062 21.699219 -102.007812 C 20.851562 -102.855469 20.007812 -103.277344 18.878906 -103.277344 L 11.128906 -103.277344 C 10.003906 -103.277344 9.015625 -102.855469 8.171875 -102.007812 C 7.328125 -101.164062 7.042969 -100.316406 7.042969 -99.191406 L 7.042969 -4.085938 C 7.042969 -2.957031 7.328125 -1.972656 8.171875 -1.128906 C 9.015625 -0.28125 10.003906 0 11.128906 0 L 18.878906 0 C 20.007812 0 20.851562 -0.28125 21.699219 -1.128906 C 22.542969 -1.972656 22.964844 -2.957031 22.964844 -4.085938 L 22.964844 -39.59375 C 22.964844 -40.71875 23.246094 -41.5625 24.09375 -42.410156 C 24.9375 -43.253906 25.925781 -43.679688 27.050781 -43.679688 L 47.058594 -43.679688 C 48.1875 -43.679688 49.03125 -43.253906 49.878906 -42.410156 C 50.722656 -41.5625 51.144531 -40.71875 51.144531 -39.59375 L 51.144531 -4.085938 C 51.144531 -2.957031 51.425781 -1.972656 52.273438 -1.128906 C 53.117188 -0.28125 54.105469 0 55.371094 0 L 62.980469 0 C 64.109375 0 64.953125 -0.28125 65.796875 -1.128906 C 66.644531 -1.972656 67.066406 -2.957031 67.066406 -4.085938 L 67.066406 -99.191406 C 67.066406 -100.316406 66.644531 -101.164062 65.796875 -102.007812 C 64.953125 -102.855469 64.109375 -103.277344 62.980469 -103.277344 L 55.371094 -103.277344 C 54.105469 -103.277344 53.117188 -102.855469 52.273438 -102.007812 C 51.425781 -101.164062 51.144531 -100.316406 51.144531 -99.191406 Z M 51.144531 -99.191406 "/></g></g></g><g fill="#ffffff" fill-opacity="1"><g transform="translate(679.160891, 186.22513)"><g><path d="M 94.964844 -103.277344 L 85.101562 -103.277344 C 83.128906 -103.277344 81.859375 -102.289062 81.15625 -100.460938 L 54.667969 -27.757812 C 54.386719 -26.910156 53.964844 -26.628906 53.117188 -26.628906 C 52.273438 -26.628906 51.707031 -26.910156 51.425781 -27.757812 L 24.9375 -100.460938 C 24.234375 -102.289062 22.964844 -103.277344 20.992188 -103.277344 L 11.273438 -103.277344 C 10.003906 -103.277344 9.015625 -102.855469 8.171875 -102.007812 C 7.328125 -101.164062 7.042969 -100.175781 7.042969 -99.050781 L 7.042969 -4.226562 C 7.042969 -2.957031 7.328125 -1.972656 8.171875 -1.128906 C 9.015625 -0.28125 10.003906 0 11.273438 0 L 18.738281 0 C 19.867188 0 20.851562 -0.28125 21.699219 -1.128906 C 22.542969 -1.972656 22.964844 -2.957031 22.964844 -4.226562 L 22.964844 -49.738281 C 22.964844 -50.582031 23.390625 -51.144531 24.375 -51.425781 C 25.359375 -51.566406 26.066406 -51.144531 26.347656 -50.300781 L 43.679688 -2.816406 C 44.242188 -0.84375 45.648438 0 47.621094 0 L 58.613281 0 C 59.457031 0 60.164062 -0.140625 61.007812 -0.703125 C 61.710938 -1.269531 62.277344 -1.972656 62.558594 -2.816406 L 79.886719 -50.300781 C 80.171875 -51.144531 80.734375 -51.566406 81.859375 -51.425781 C 82.707031 -51.144531 83.269531 -50.582031 83.269531 -49.738281 L 83.269531 -4.226562 C 83.269531 -2.957031 83.550781 -1.972656 84.398438 -1.128906 C 85.242188 -0.28125 86.226562 0 87.355469 0 L 94.964844 0 C 96.089844 0 97.078125 -0.28125 97.921875 -1.128906 C 98.769531 -1.972656 99.191406 -2.957031 99.191406 -4.226562 L 99.191406 -99.050781 C 99.191406 -100.175781 98.769531 -101.164062 97.921875 -102.007812 C 97.078125 -102.855469 96.089844 -103.277344 94.964844 -103.277344 Z M 94.964844 -103.277344 "/></g></g></g><g fill="#ffffff" fill-opacity="1"><g transform="translate(785.388692, 186.22513)"><g><path d="M 34.378906 -103.277344 L 11.128906 -103.277344 C 10.003906 -103.277344 9.015625 -102.855469 8.171875 -102.007812 C 7.328125 -101.164062 7.042969 -100.316406 7.042969 -99.191406 L 7.042969 -4.085938 C 7.042969 -2.957031 7.328125 -1.972656 8.171875 -1.128906 C 9.015625 -0.28125 10.003906 0 11.128906 0 L 18.878906 0 C 20.007812 0 20.851562 -0.28125 21.699219 -1.128906 C 22.542969 -1.972656 22.964844 -2.957031 22.964844 -4.085938 L 22.964844 -26.628906 C 22.964844 -27.757812 23.246094 -28.601562 24.09375 -29.449219 C 24.9375 -30.292969 25.925781 -30.714844 27.050781 -30.714844 L 34.378906 -30.714844 C 40.859375 -30.714844 46.214844 -32.40625 50.582031 -36.070312 C 54.949219 -39.59375 58.191406 -44.101562 60.445312 -49.453125 C 62.558594 -54.808594 63.683594 -60.726562 63.683594 -66.925781 C 63.683594 -73.125 62.558594 -79.042969 60.445312 -84.398438 C 58.191406 -89.75 54.949219 -94.257812 50.582031 -97.921875 C 46.214844 -101.445312 40.859375 -103.277344 34.378906 -103.277344 Z M 34.660156 -46.636719 L 27.050781 -46.636719 C 25.925781 -46.636719 24.9375 -46.917969 24.09375 -47.765625 C 23.246094 -48.609375 22.964844 -49.59375 22.964844 -50.722656 L 22.964844 -83.269531 C 22.964844 -84.398438 23.246094 -85.242188 24.09375 -86.085938 C 24.9375 -86.933594 25.925781 -87.355469 27.050781 -87.355469 L 34.660156 -87.355469 C 37.621094 -87.355469 40.15625 -86.226562 42.128906 -84.257812 C 44.101562 -82.285156 45.507812 -79.746094 46.496094 -76.789062 C 47.480469 -73.6875 48.046875 -70.449219 48.046875 -66.925781 C 48.046875 -63.402344 47.480469 -60.164062 46.496094 -57.203125 C 45.367188 -54.105469 43.960938 -51.566406 41.988281 -49.59375 C 40.015625 -47.621094 37.476562 -46.636719 34.660156 -46.636719 Z M 34.660156 -46.636719 "/></g></g></g><g fill="#ffffff" fill-opacity="1"><g transform="translate(856.254177, 186.22513)"><g><path d="M 57.203125 -25.359375 C 57.203125 -28.179688 56.78125 -30.996094 56.21875 -33.535156 C 55.652344 -36.070312 54.527344 -38.464844 53.117188 -41 C 51.707031 -43.535156 49.738281 -46.074219 47.339844 -48.609375 C 44.945312 -51.144531 41.988281 -53.964844 38.605469 -56.921875 C 35.789062 -59.175781 33.535156 -61.148438 31.703125 -63.121094 C 29.871094 -65.09375 28.460938 -66.925781 27.332031 -68.617188 C 26.207031 -70.308594 25.359375 -71.855469 24.9375 -73.546875 C 24.375 -75.238281 24.234375 -76.929688 24.234375 -78.902344 C 24.234375 -82.425781 24.9375 -84.960938 26.347656 -86.511719 C 27.757812 -88.058594 29.871094 -88.90625 32.6875 -88.90625 C 35.363281 -88.90625 37.476562 -88.058594 38.886719 -86.511719 C 40.296875 -84.960938 41.140625 -82.425781 41.140625 -78.902344 L 41.140625 -77.914062 C 41.140625 -76.929688 41.421875 -76.082031 41.988281 -75.519531 C 42.550781 -74.957031 43.394531 -74.675781 44.242188 -74.675781 L 53.824219 -74.675781 C 54.667969 -74.675781 55.371094 -74.957031 55.9375 -75.519531 C 56.5 -76.082031 56.921875 -76.929688 56.921875 -77.914062 C 56.921875 -84.113281 55.652344 -89.1875 53.257812 -93.273438 C 50.722656 -97.359375 47.058594 -100.175781 42.269531 -101.867188 C 40.71875 -102.289062 40.015625 -103.277344 40.015625 -104.828125 L 40.015625 -109.335938 C 40.015625 -110.179688 39.59375 -111.027344 39.027344 -111.589844 C 38.464844 -112.152344 37.761719 -112.574219 36.914062 -112.574219 L 27.332031 -112.574219 C 26.347656 -112.574219 25.503906 -112.152344 24.9375 -111.589844 C 24.375 -111.027344 24.09375 -110.179688 24.09375 -109.335938 L 24.09375 -104.6875 C 24.09375 -103.136719 23.390625 -102.148438 21.980469 -101.726562 C 17.1875 -100.035156 13.527344 -97.21875 11.128906 -93.273438 C 8.59375 -89.1875 7.46875 -84.113281 7.46875 -77.914062 C 7.46875 -74.957031 7.75 -72.28125 8.3125 -69.742188 C 8.875 -67.207031 10.003906 -64.671875 11.414062 -62.136719 C 12.820312 -59.597656 14.792969 -57.0625 17.1875 -54.527344 C 19.445312 -51.992188 22.402344 -49.171875 25.925781 -46.355469 C 28.601562 -44.101562 30.855469 -41.988281 32.6875 -40.015625 C 34.519531 -38.042969 36.070312 -36.351562 37.195312 -34.660156 C 38.324219 -32.96875 39.027344 -31.277344 39.59375 -29.589844 C 40.015625 -27.898438 40.296875 -26.066406 40.296875 -24.375 C 40.296875 -20.710938 39.449219 -18.175781 37.902344 -16.765625 C 36.351562 -15.214844 34.238281 -14.511719 31.5625 -14.511719 C 28.882812 -14.511719 26.769531 -15.214844 25.21875 -16.765625 C 23.671875 -18.175781 22.964844 -20.710938 22.964844 -24.375 L 22.964844 -28.460938 C 22.964844 -29.304688 22.542969 -30.011719 21.980469 -30.574219 C 21.417969 -31.136719 20.570312 -31.5625 19.726562 -31.5625 L 10.144531 -31.5625 C 9.300781 -31.5625 8.453125 -31.136719 7.890625 -30.574219 C 7.328125 -30.011719 7.042969 -29.304688 7.042969 -28.460938 L 7.042969 -25.359375 C 7.042969 -19.160156 8.171875 -13.949219 10.707031 -9.863281 C 13.246094 -5.777344 16.90625 -2.957031 21.980469 -1.410156 C 23.390625 -0.84375 24.09375 0.140625 24.09375 1.550781 L 24.09375 6.058594 C 24.09375 7.042969 24.375 7.890625 24.9375 8.453125 C 25.503906 9.015625 26.347656 9.300781 27.332031 9.300781 L 36.914062 9.300781 C 37.761719 9.300781 38.464844 9.015625 39.027344 8.453125 C 39.59375 7.890625 40.015625 7.042969 40.015625 6.058594 L 40.015625 1.550781 C 40.015625 0.140625 40.71875 -0.84375 42.269531 -1.410156 C 47.199219 -2.957031 50.863281 -5.777344 53.398438 -9.863281 C 55.9375 -13.949219 57.203125 -19.160156 57.203125 -25.359375 Z M 57.203125 -25.359375 "/></g></g></g></svg>